<svg class="mapStar" width="39" height="37" viewBox="0 0 39 37" fill="none" xmlns="http://www.w3.org/2000/svg">
<path class="mapStar" d="M19.964 1.49717L24.3625 12.4504C24.5771 12.9847 25.0785 13.3491 25.653 13.388L37.4294 14.1865C37.879 14.217 38.062 14.7801 37.7161 15.0691L28.6582 22.6371C28.2163 23.0062 28.0248 23.5957 28.1653 24.1541L31.045 35.6009C31.1549 36.038 30.6759 36.386 30.2942 36.1463L20.2976 29.8703C19.8099 29.5642 19.1901 29.5642 18.7024 29.8703L8.70579 36.1463C8.32408 36.386 7.84509 36.038 7.95505 35.6009L10.8347 24.1541C10.9752 23.5957 10.7837 23.0062 10.3418 22.6371L1.28386 15.0691C0.937992 14.7801 1.12095 14.217 1.57062 14.1865L13.347 13.388C13.9215 13.3491 14.4229 12.9847 14.6375 12.4504L19.036 1.49717C19.204 1.07894 19.796 1.07894 19.964 1.49717Z" fill="white" fill-opacity="1" stroke="white"/>
</svg>
