<svg width="22" height="22" viewBox="0 0 22 22" fill="none" xmlns="http://www.w3.org/2000/svg">
<path fill-rule="evenodd" clip-rule="evenodd" d="M5 3C3.34315 3 2 4.34315 2 6V15C2 16.6569 3.34315 18 5 18H17C18.6569 18 20 16.6569 20 15V6C20 4.34315 18.6569 3 17 3H5ZM17.6 6.8C17.8518 6.61115 18 6.31476 18 6C18 5.44772 17.5523 5 17 5H5C4.44772 5 4 5.44772 4 6C4 6.31476 4.14819 6.61115 4.4 6.8L10.4 11.3C10.7556 11.5667 11.2444 11.5667 11.6 11.3L17.6 6.8ZM4 9L9.2 12.9C10.2667 13.7 11.7333 13.7 12.8 12.9L18 9V15C18 15.5523 17.5523 16 17 16H5C4.44772 16 4 15.5523 4 15V9Z" fill="#84C47C"/>
</svg>
